# xmcd
#
# Track frame offsets:
# 150
# 31112
# 56127
# 99495
# 142052
# 178732
# 198415
# 225007
# 251862
# 283377
# 311420
#
# Disc length: 4470 seconds
#
#
# Revision: 3
# Processed by: cddbd v1.5.1PL2 Copyright (c) Steve Scherf et al.
# Submitted via: FreeRIP 2.944 
#
DISCID=9c11740b
DTITLE=Sharin - Hearts In Harmonyams
DYEAR=1900
DGENRE=New Age
TTITLE0=Lightness
TTITLE1=Tender Hands
TTITLE2=Musical Touch
TTITLE3=Consolation
TTITLE4=Soeria
TTITLE5=Hearts in Harmony
TTITLE6=Marlene
TTITLE7=Future
TTITLE8=Children's Fun
TTITLE9=Going Home
TTITLE10=Eternity
EXTD=Music For Relaxation
EXTT0=
EXTT1=
EXTT2=
EXTT3=
EXTT4=
EXTT5=
EXTT6=
EXTT7=
EXTT8=
EXTT9=
EXTT10=
PLAYORDER=
